<svg id="Lager_1" data-name="Lager 1" xmlns="http://www.w3.org/2000/svg" viewBox="0 0 134.22 134.22"><defs><style>.cls-1{fill:#2cba25;}</style></defs><title>logo</title><path class="cls-1" d="M67.11,2.43A68.74,68.74,0,0,0,84.55,14.8l-.62,11.33a51.66,51.66,0,0,0-7.48,13.12,32.16,32.16,0,0,1,10.78-11.4,29.78,29.78,0,0,1,13,10.21c4.24,5.94,5.24,13.79,5.61,16.28-6.81,7.54-11.65,10.24-23.23,16.72,11-5.1,16-7.66,24.12-13.9A2.25,2.25,0,0,1,110,59.42l-1,18.11c-.21,5.24-1,9.83-1.74,11.39a29.62,29.62,0,0,1-3,5c-.08.12-.18.24-.27.36-1.08,1.48-2.23,2.9-3.34,4.35l0,.07a106.89,106.89,0,0,1-9.17,10.12c2.52-1.11,7.35-5.11,7.35-5.11-.32,1.92-.76,5.57-1,8.56l-.45,3.82L83.65,131.8l1.51-30a12.24,12.24,0,0,1,4.47-9.07L95.86,87c5.23-4.65,4.69-14.51,4.69-14.51l5.13-5.88C95.75,72.8,85.56,78.72,75.07,82.26a2.14,2.14,0,0,0-1.47,2.12c.31,7.35,1,14.4,3.06,19.16l-9.55,9.72h0l-9.54-9.72c2.06-4.76,2.74-11.81,3.06-19.15a2.17,2.17,0,0,0-1.47-2.13C48.67,78.72,38.47,72.8,28.54,66.61l5.14,5.89s-.55,9.85,4.68,14.5l6.23,5.78a12.28,12.28,0,0,1,4.48,9.07l1.5,30L36.84,116.09l-.44-3.82c-.24-3-.68-6.64-1-8.56,0,0,4.82,4,7.35,5.11A105.18,105.18,0,0,1,33.58,98.7l0-.07c-1.11-1.45-2.26-2.87-3.34-4.35l-.27-.36a30.29,30.29,0,0,1-3-5c-.71-1.56-1.53-6.15-1.74-11.38l-1-18.11a2.25,2.25,0,0,1,3.28-2.27c8.18,6.25,13.07,8.8,24.12,13.9C40,64.58,35.16,61.88,28.35,54.35,28.72,51.85,29.72,44,34,38.06A29.75,29.75,0,0,1,47,27.85,32,32,0,0,1,57.77,39.26,51.53,51.53,0,0,0,50.3,26.13L49.67,14.8A68.74,68.74,0,0,0,67.11,2.43Z"/></svg>